<svg xmlns="http://www.w3.org/2000/svg" viewBox="0 0 640 400" width="640" height="400"><title>UCM Contract Exporter</title><rect x="0.5" y="0.5" width="639" height="399" rx="32" fill="#ffffff" stroke="#e6e1ea"/><svg x="48" y="48" width="128" height="128" viewBox="0 0 100 100"><defs><mask id="decoupe-carte"><rect width="100" height="100" rx="22.5" fill="#fff"/></mask></defs><g mask="url(#decoupe-carte)"><rect width="100" height="100" fill="#0d1b45"/><path d="M81.86 42L-201.8 139.67L-144.56 238.82Z" fill="#2a62b8"/><path d="M84 50L-210.49 -7.24L-210.49 107.24Z" fill="#2f9fc4"/><path d="M81.86 58L-144.56 -138.82L-201.8 -39.67Z" fill="#1f7fa8"/><path d="M69.39 52.84L74.73 48.2L67.78 46.85L25.73 61.33Z" fill="#8fd8f0"/><path d="M68.67 53.46L72.65 50L68.67 46.54L58.62 50Z" fill="#6f9ff0"/><path d="M67.78 53.15L74.73 51.8L69.39 47.16L25.73 38.67Z" fill="#7fe8dc"/><path d="M67.78 53.15L69.39 52.84L72.65 50L69.39 47.16L67.78 46.85L58.62 50Z" fill="#fffaf0"/></g></svg><rect x="462" y="48" width="130" height="32" rx="16" fill="#1c162214"/><text x="527" y="69" text-anchor="middle" font-family="Inter, 'Segoe UI', system-ui, sans-serif" font-size="14" fill="#1c1622">Plugin Figma</text><text x="48" y="230" font-family="Inter, 'Segoe UI', system-ui, sans-serif" font-size="16" letter-spacing="2" fill="#6b6070">UCM</text><text x="48" y="276" font-family="Inter, 'Segoe UI', system-ui, sans-serif" font-size="40" font-weight="700" fill="#1c1622">Contract Exporter</text><text x="48" y="320" font-family="Inter, 'Segoe UI', system-ui, sans-serif" font-size="20" fill="#5d5360">Analyse les composants Figma</text><text x="48" y="348" font-family="Inter, 'Segoe UI', system-ui, sans-serif" font-size="20" fill="#5d5360">et publie leurs contrats.</text></svg>
